<svg xmlns="http://www.w3.org/2000/svg" xmlns:xlink="http://www.w3.org/1999/xlink" viewBox="0 0 256 256" width="20" height="20" preserveAspectRatio="xMidYMid meet"><defs><clipPath id="__lottie_element_228"><rect width="20" height="20" x="0" y="0"></rect></clipPath><clipPath id="__lottie_element_230"><path d="M0,0 L256,0 L256,256 L0,256z"></path></clipPath></defs><g clip-path="url(#__lottie_element_228)"><g clip-path="url(#__lottie_element_230)" transform="matrix(1,0,0,1,0,0)" opacity="0.9999999929021692" style="display: block;"><g transform="matrix(1.1799999475479126,0,0,1.1799999475479126,128,128)" opacity="1" style="display: block;"><g opacity="1" transform="matrix(1,0,0,1,0,0)"><path fill="rgb(27,150,235)" fill-opacity="1" d=" M0,-108 C59.605201721191406,-108 108,-59.605201721191406 108,0 C108,59.605201721191406 59.605201721191406,108 0,108 C-59.605201721191406,108 -108,59.605201721191406 -108,0 C-108,-59.605201721191406 -59.605201721191406,-108 0,-108z" data-darkreader-inline-fill="" style="--darkreader-inline-fill: var(--darkreader-background-1b96eb, #1073b8);"></path></g></g><g transform="matrix(1.1799999475479126,0,0,1.1799999475479126,128,128)" opacity="1" style="display: block;"><g opacity="1" transform="matrix(1,0,0,1,0,0)"><path fill="rgb(255,255,255)" fill-opacity="1" d=" M0,-66 C36.42539978027344,-66 66,-36.42539978027344 66,0 C66,36.42539978027344 36.42539978027344,66 0,66 C-36.42539978027344,66 -66,36.42539978027344 -66,0 C-66,-36.42539978027344 -36.42539978027344,-66 0,-66z" data-darkreader-inline-fill="" style="--darkreader-inline-fill: var(--darkreader-text-ffffff, #e8e6e3);"></path></g></g><g transform="matrix(1.1799999475479126,0,0,1.1799999475479126,128,153.95999145507812)" opacity="1" style="display: block;"><g opacity="1" transform="matrix(1,0,0,1,0,0)"><path stroke-linecap="round" stroke-linejoin="miter" fill-opacity="0" stroke-miterlimit="4" stroke="rgb(27,150,235)" stroke-opacity="1" stroke-width="8" d=" M23.69099998474121,-4.052000045776367 C17.354000091552734,1.2740000486373901 9.177000045776367,4.48199987411499 0.25099998712539673,4.48199987411499 C-8.911999702453613,4.48199987411499 -17.285999298095703,1.1009999513626099 -23.69099998474121,-4.48199987411499" data-darkreader-inline-stroke="" style="--darkreader-inline-stroke: var(--darkreader-text-1b96eb, #31a0ed);"></path></g></g><g transform="matrix(1.1799999475479126,0,0,1.1799999475479126,99.82749938964844,118.11750030517578)" opacity="1" style="display: block;"><g opacity="1" transform="matrix(1,0,0,1,48.25,0)"><path fill="rgb(27,150,235)" fill-opacity="1" d=" M0,-10 C5.519000053405762,-10 10,-5.519000053405762 10,0 C10,5.519000053405762 5.519000053405762,10 0,10 C-5.519000053405762,10 -10,5.519000053405762 -10,0 C-10,-5.519000053405762 -5.519000053405762,-10 0,-10z" data-darkreader-inline-fill="" style="--darkreader-inline-fill: var(--darkreader-text-1b96eb, #31a0ed);"></path></g><g opacity="1" transform="matrix(1,0,0,1,0,0)"><path fill="rgb(27,150,235)" fill-opacity="1" d=" M0,-10 C5.519000053405762,-10 10,-5.519000053405762 10,0 C10,5.519000053405762 5.519000053405762,10 0,10 C-5.519000053405762,10 -10,5.519000053405762 -10,0 C-10,-5.519000053405762 -5.519000053405762,-10 0,-10z" data-darkreader-inline-fill="" style="--darkreader-inline-fill: var(--darkreader-text-1b96eb, #31a0ed);"></path></g></g><g transform="matrix(0.9453805685043335,0,0,0.9453805685043335,128,128)" opacity="0.20000000967061454" style="display: block;"><g opacity="1" transform="matrix(1,0,0,1,0,0)"><path fill="rgb(255,255,255)" fill-opacity="1" d=" M0,-134 C73.95459747314453,-134 134,-73.95459747314453 134,0 C134,73.95459747314453 73.95459747314453,134 0,134 C-73.95459747314453,134 -134,73.95459747314453 -134,0 C-134,-73.95459747314453 -73.95459747314453,-134 0,-134z" data-darkreader-inline-fill="" style="--darkreader-inline-fill: var(--darkreader-text-ffffff, #e8e6e3);"></path></g></g></g></g></svg>